<?xml version="1.0" encoding="UTF-8"?>
<svg version="1.1" xmlns="http://www.w3.org/2000/svg" width="1836" height="300">
<path d="M0 0 C4.60054031 3.21159437 8.30133792 6.88407515 12.06640625 11.02734375 C14.14263599 13.49564289 14.14263599 13.49564289 17.2734375 14.28515625 C19.70963368 13.46614164 22.02955978 12.58019244 24.3984375 11.59765625 C32.86970947 8.26031232 41.35728836 6.06660463 50.2734375 4.28515625 C51.87445313 3.94484375 51.87445313 3.94484375 53.5078125 3.59765625 C80.66344163 -1.26603852 109.6672359 2.58583746 135.2734375 12.28515625 C139.19073451 13.76789693 139.19073451 13.76789693 143.2734375 14.28515625 C143.61375 13.44984375 143.61375 13.44984375 143.9609375 12.59765625 C145.6437949 9.63262178 147.80965124 7.63161936 150.2734375 5.28515625 C150.9746875 4.52203125 151.6759375 3.75890625 152.3984375 2.97265625 C154.2734375 1.28515625 154.2734375 1.28515625 157.2734375 1.28515625 C157.2734375 0.62515625 157.2734375 -0.03484375 157.2734375 -0.71484375 C167.85259765 -5.2029723 179.61704318 -7.1378641 190.7109375 -3.15234375 C197.14436786 -0.09863779 203.34096888 4.26934218 207.2734375 10.28515625 C207.2734375 10.94515625 207.2734375 11.60515625 207.2734375 12.28515625 C207.9334375 12.28515625 208.5934375 12.28515625 209.2734375 12.28515625 C211.2734375 15.28515625 211.2734375 15.28515625 211.2734375 18.28515625 C211.9334375 18.28515625 212.5934375 18.28515625 213.2734375 18.28515625 C219.23353373 29.74242861 220.68242899 41.94066337 217.7421875 54.56640625 C215.95880411 59.91655643 212.86867817 64.95884993 209.2734375 69.28515625 C208.6134375 69.28515625 207.9534375 69.28515625 207.2734375 69.28515625 C206.9434375 70.27515625 206.6134375 71.26515625 206.2734375 72.28515625 C205.6134375 72.61515625 204.9534375 72.94515625 204.2734375 73.28515625 C204.89505094 77.32564363 206.21832927 80.50341638 208.0234375 84.16015625 C220.80012609 111.57807411 225.68284326 145.44743348 215.49365234 174.50927734 C212.49037985 182.4142002 208.97038342 190.93561901 203.2734375 197.28515625 C202.6134375 197.28515625 201.9534375 197.28515625 201.2734375 197.28515625 C201.0053125 197.86265625 200.7371875 198.44015625 200.4609375 199.03515625 C199.24414561 201.34065668 197.97009871 203.30571817 196.2734375 205.28515625 C195.6134375 205.28515625 194.9534375 205.28515625 194.2734375 205.28515625 C193.9640625 206.12433594 193.9640625 206.12433594 193.6484375 206.98046875 C191.77444431 210.12153688 189.16191593 212.01182724 186.2734375 214.16015625 C185.68747803 214.60141846 185.10151855 215.04268066 184.49780273 215.49731445 C179.6147088 219.12618221 174.62285708 222.37890442 169.2734375 225.28515625 C168.28601563 225.836875 167.29859375 226.38859375 166.28125 226.95703125 C150.05141702 235.58748361 132.36387765 240.42739107 114.2734375 243.28515625 C112.67628906 243.55005859 112.67628906 243.55005859 111.046875 243.8203125 C100.35805797 245.43983023 89.81700814 245.68421568 79.0234375 245.66015625 C78.10301666 245.65961243 77.18259583 245.6590686 76.23428345 245.6585083 C36.22999705 245.55023996 -8.30885129 236.76054925 -37.7265625 207.28515625 C-37.7265625 206.62515625 -37.7265625 205.96515625 -37.7265625 205.28515625 C-38.7165625 204.95515625 -39.7065625 204.62515625 -40.7265625 204.28515625 C-42.42343655 202.42512123 -43.95694442 200.59457177 -45.4765625 198.59765625 C-45.91758301 198.01822266 -46.35860352 197.43878906 -46.81298828 196.84179688 C-62.99351778 174.93838289 -66.54932438 147.92907508 -62.6472168 121.52905273 C-60.14970524 106.69921026 -56.23778578 91.14930282 -48.4765625 78.125 C-47.5788612 76.30912458 -47.5788612 76.30912458 -47.86328125 74.3046875 C-48.98525474 71.6799803 -50.55459896 70.08220955 -52.5390625 68.03515625 C-61.73391238 58.03287332 -62.29883207 48.40424495 -61.85839844 35.36523438 C-61.5977634 31.25299262 -60.55653261 27.94509647 -58.7265625 24.28515625 C-58.324375 23.41890625 -57.9221875 22.55265625 -57.5078125 21.66015625 C-52.6163222 11.87717566 -45.74157478 3.09705668 -35.7265625 -1.71484375 C-35.0871875 -2.03195313 -34.4478125 -2.3490625 -33.7890625 -2.67578125 C-22.47270876 -7.34806366 -10.44744972 -5.82140505 0 0 Z " fill="#FDFDFD" transform="translate(71.7265625,29.71484375)"/>
<path d="M0 0 C4.60054031 3.21159437 8.30133792 6.88407515 12.06640625 11.02734375 C14.14263599 13.49564289 14.14263599 13.49564289 17.2734375 14.28515625 C19.70963368 13.46614164 22.02955978 12.58019244 24.3984375 11.59765625 C32.86970947 8.26031232 41.35728836 6.06660463 50.2734375 4.28515625 C51.87445313 3.94484375 51.87445313 3.94484375 53.5078125 3.59765625 C80.66344163 -1.26603852 109.6672359 2.58583746 135.2734375 12.28515625 C139.19073451 13.76789693 139.19073451 13.76789693 143.2734375 14.28515625 C143.61375 13.44984375 143.61375 13.44984375 143.9609375 12.59765625 C145.6437949 9.63262178 147.80965124 7.63161936 150.2734375 5.28515625 C150.9746875 4.52203125 151.6759375 3.75890625 152.3984375 2.97265625 C154.2734375 1.28515625 154.2734375 1.28515625 157.2734375 1.28515625 C157.2734375 0.62515625 157.2734375 -0.03484375 157.2734375 -0.71484375 C167.85259765 -5.2029723 179.61704318 -7.1378641 190.7109375 -3.15234375 C197.14436786 -0.09863779 203.34096888 4.26934218 207.2734375 10.28515625 C207.2734375 10.94515625 207.2734375 11.60515625 207.2734375 12.28515625 C207.9334375 12.28515625 208.5934375 12.28515625 209.2734375 12.28515625 C211.2734375 15.28515625 211.2734375 15.28515625 211.2734375 18.28515625 C211.9334375 18.28515625 212.5934375 18.28515625 213.2734375 18.28515625 C219.23353373 29.74242861 220.68242899 41.94066337 217.7421875 54.56640625 C215.95880411 59.91655643 212.86867817 64.95884993 209.2734375 69.28515625 C208.6134375 69.28515625 207.9534375 69.28515625 207.2734375 69.28515625 C206.9434375 70.27515625 206.6134375 71.26515625 206.2734375 72.28515625 C205.6134375 72.61515625 204.9534375 72.94515625 204.2734375 73.28515625 C204.89505094 77.32564363 206.21832927 80.50341638 208.0234375 84.16015625 C220.80012609 111.57807411 225.68284326 145.44743348 215.49365234 174.50927734 C212.49037985 182.4142002 208.97038342 190.93561901 203.2734375 197.28515625 C202.6134375 197.28515625 201.9534375 197.28515625 201.2734375 197.28515625 C201.0053125 197.86265625 200.7371875 198.44015625 200.4609375 199.03515625 C199.24414561 201.34065668 197.97009871 203.30571817 196.2734375 205.28515625 C195.6134375 205.28515625 194.9534375 205.28515625 194.2734375 205.28515625 C193.9640625 206.12433594 193.9640625 206.12433594 193.6484375 206.98046875 C191.77444431 210.12153688 189.16191593 212.01182724 186.2734375 214.16015625 C185.68747803 214.60141846 185.10151855 215.04268066 184.49780273 215.49731445 C179.6147088 219.12618221 174.62285708 222.37890442 169.2734375 225.28515625 C168.28601563 225.836875 167.29859375 226.38859375 166.28125 226.95703125 C150.05141702 235.58748361 132.36387765 240.42739107 114.2734375 243.28515625 C112.67628906 243.55005859 112.67628906 243.55005859 111.046875 243.8203125 C100.35805797 245.43983023 89.81700814 245.68421568 79.0234375 245.66015625 C78.10301666 245.65961243 77.18259583 245.6590686 76.23428345 245.6585083 C36.22999705 245.55023996 -8.30885129 236.76054925 -37.7265625 207.28515625 C-37.7265625 206.62515625 -37.7265625 205.96515625 -37.7265625 205.28515625 C-38.7165625 204.95515625 -39.7065625 204.62515625 -40.7265625 204.28515625 C-42.42343655 202.42512123 -43.95694442 200.59457177 -45.4765625 198.59765625 C-45.91758301 198.01822266 -46.35860352 197.43878906 -46.81298828 196.84179688 C-62.99351778 174.93838289 -66.54932438 147.92907508 -62.6472168 121.52905273 C-60.14970524 106.69921026 -56.23778578 91.14930282 -48.4765625 78.125 C-47.5788612 76.30912458 -47.5788612 76.30912458 -47.86328125 74.3046875 C-48.98525474 71.6799803 -50.55459896 70.08220955 -52.5390625 68.03515625 C-61.73391238 58.03287332 -62.29883207 48.40424495 -61.85839844 35.36523438 C-61.5977634 31.25299262 -60.55653261 27.94509647 -58.7265625 24.28515625 C-58.324375 23.41890625 -57.9221875 22.55265625 -57.5078125 21.66015625 C-52.6163222 11.87717566 -45.74157478 3.09705668 -35.7265625 -1.71484375 C-35.0871875 -2.03195313 -34.4478125 -2.3490625 -33.7890625 -2.67578125 C-22.47270876 -7.34806366 -10.44744972 -5.82140505 0 0 Z M46.2734375 17.28515625 C45.0683252 17.58317139 45.0683252 17.58317139 43.83886719 17.88720703 C21.88339159 23.51735684 3.68601719 33.57346965 -12.7265625 49.28515625 C-13.32726563 49.83429688 -13.92796875 50.3834375 -14.546875 50.94921875 C-24.91422907 60.7379298 -32.20417277 72.7418502 -38.7265625 85.28515625 C-39.29375 86.35378906 -39.8609375 87.42242187 -40.4453125 88.5234375 C-45.00111377 97.66990587 -47.53541303 107.34608626 -49.7265625 117.28515625 C-50.00910889 118.56519531 -50.00910889 118.56519531 -50.29736328 119.87109375 C-54.96911594 142.98353586 -51.84151296 165.10664718 -39.7265625 185.28515625 C-37.29866814 188.87824489 -34.66036024 192.09600945 -31.7265625 195.28515625 C-30.98921875 196.11402344 -30.251875 196.94289062 -29.4921875 197.796875 C-4.43105952 224.53693475 36.62907498 232.60577516 71.6640625 234.57421875 C112.80614892 235.47573857 156.63712441 225.95807672 187.0859375 196.91015625 C192.02906479 191.81745306 195.81320058 186.46415075 199.2734375 180.28515625 C199.66015625 179.63289062 200.046875 178.980625 200.4453125 178.30859375 C210.22136993 160.63648993 211.28524118 135.67357619 206.18359375 116.4296875 C205.88324219 115.39199219 205.58289063 114.35429687 205.2734375 113.28515625 C204.98339844 112.07214844 204.69335938 110.85914063 204.39453125 109.609375 C199.54404398 89.74064261 189.83082338 73.17997356 177.2734375 57.28515625 C176.56832031 56.34929687 175.86320313 55.4134375 175.13671875 54.44921875 C174.52183594 53.73507813 173.90695313 53.0209375 173.2734375 52.28515625 C172.6134375 52.28515625 171.9534375 52.28515625 171.2734375 52.28515625 C171.04140625 51.71152344 170.809375 51.13789062 170.5703125 50.546875 C161.14958159 34.1173473 132.41667774 23.07154892 115.2734375 18.28515625 C93.04701623 12.6352339 68.6174356 11.74643245 46.2734375 17.28515625 Z " fill="#010101" transform="translate(71.7265625,29.71484375)"/>
<path d="M0 0 C4.73084519 0.14045952 7.68545425 0.33421851 11.72094727 2.93334961 C13.81676305 5.49879635 15.61855112 8.08799941 17.30444336 10.93823242 C19.54618227 14.54966737 22.25519653 17.82188293 24.86938477 21.16772461 C25.9790965 22.62611448 27.08716885 24.08575322 28.19360352 25.54663086 C31.29528812 29.61628168 34.47231899 33.62036382 37.68188477 37.60522461 C41.77817752 42.6921154 45.80794372 47.82138637 49.77416992 53.01025391 C53.23783145 57.53768503 56.75580779 62.02072423 60.30126953 66.484375 C63.32256157 70.306816 66.25836039 74.19070325 69.17773438 78.09130859 C69.59375664 78.64661003 70.0097789 79.20191147 70.4384079 79.77404022 C71.45736138 81.13421443 72.47591367 82.49468917 73.49438477 83.85522461 C73.50469223 82.83014297 73.51499969 81.80506134 73.52561951 80.74891663 C73.62318145 71.11009223 73.72589875 61.47133488 73.83372402 51.83261967 C73.88899679 46.87671749 73.94242361 41.92080947 73.99169922 36.96484375 C74.03927873 32.18618391 74.09161894 27.40759819 74.14732552 22.62902641 C74.16777823 20.80170972 74.18648638 18.97437267 74.20345879 17.14702034 C74.22743851 14.59663627 74.25750141 12.04639364 74.2890625 9.49609375 C74.29481796 8.73292847 74.30057343 7.96976318 74.3065033 7.18347168 C74.3803326 1.96927677 74.3803326 1.96927677 75.49438477 0.85522461 C86.05438477 0.85522461 96.61438477 0.85522461 107.49438477 0.85522461 C107.49438477 47.71522461 107.49438477 94.57522461 107.49438477 142.85522461 C99.24438477 142.85522461 90.99438477 142.85522461 82.49438477 142.85522461 C73.68665565 133.76788505 73.68665565 133.76788505 71.40844727 129.72241211 C68.89716567 125.4619956 66.12712715 121.67151571 62.99438477 117.85522461 C62.10619208 116.73241499 61.22082164 115.6073677 60.33813477 114.48022461 C59.65750977 113.61397461 59.65750977 113.61397461 58.96313477 112.73022461 C55.52451905 108.34050242 52.10828621 103.93329449 48.68798828 99.52929688 C45.1194862 94.93689605 41.53361361 90.35910863 37.93188477 85.79272461 C31.71886139 77.86576375 25.61241671 69.85572792 19.49438477 61.85522461 C19.16438477 88.58522461 18.83438477 115.31522461 18.49438477 142.85522461 C7.60438477 142.85522461 -3.28561523 142.85522461 -14.50561523 142.85522461 C-14.52816146 124.48837793 -14.54659394 106.12154239 -14.55742741 87.7546854 C-14.56259057 79.22723967 -14.56963364 70.69980312 -14.58105469 62.17236328 C-14.59100092 54.74256206 -14.59746852 47.31276748 -14.59970373 39.88295978 C-14.60101094 35.94649141 -14.60409745 32.01004208 -14.61134529 28.07357979 C-14.61810455 24.37269134 -14.62023239 20.67182986 -14.61872292 16.97093582 C-14.61913162 14.95651659 -14.62452731 12.94210034 -14.6300354 10.9276886 C-14.62866074 9.73991821 -14.62728607 8.55214783 -14.62586975 7.3283844 C-14.62679154 6.28952371 -14.62771334 5.25066301 -14.62866306 4.18032169 C-14.31552805 -1.73664014 -4.52013508 0.06294451 0 0 Z " fill="#0A0A0A" transform="translate(1324.505615234375,84.144775390625)"/>
<path d="M0 0 C89.25 0 89.25 0 114.18359375 23.015625 C122.99122138 32.01211014 128.58370268 44.75187221 131 57 C131.226875 58.093125 131.45375 59.18625 131.6875 60.3125 C133.46001457 81.22817193 129.74180139 100.56361886 116.3984375 117.25390625 C104.18528171 131.2373729 89.05495924 138.38900815 71 142 C47.57 142 24.14 142 0 142 C0 95.14 0 48.28 0 0 Z M32 29 C32 57.05 32 85.1 32 114 C60.41066158 115.77985538 60.41066158 115.77985538 85 105 C85.63808594 104.48566406 86.27617188 103.97132813 86.93359375 103.44140625 C95.59921114 95.67030421 98.22175338 84.74137723 99.21875 73.54296875 C99.70785774 60.92806495 95.92754907 49.14803114 87.4375 39.8125 C71.76799561 24.91753385 53.17758375 29 32 29 Z " fill="#0B0B0B" transform="translate(1458,85)"/>
<path d="M0 0 C80.38161058 0 80.38161058 0 94.9375 13.25 C102.84693394 22.04481833 106.59836702 32.8404941 106.24609375 44.58984375 C105.13355601 55.48564992 101.40271039 65.12284065 93.375 72.75 C86.82050919 78.08182618 79.0033452 81.47075293 71 84 C71.72703125 84.8971875 72.4540625 85.794375 73.203125 86.71875 C79.05858366 93.97459819 84.78377041 101.30423828 90.34326172 108.78930664 C94.82865745 114.81386598 99.44244155 120.73393444 104.10498047 126.62231445 C108.00369769 131.58499241 111.57072013 136.70253035 115 142 C81.58281635 144.82930059 81.58281635 144.82930059 73.08642578 140.5234375 C68.78156505 136.65711767 66.48986316 131.78075772 64.20605469 126.54003906 C62.19118339 122.29657329 59.33406 118.72395237 56.5 115 C55.42683324 113.52254134 54.35782771 112.04205132 53.29296875 110.55859375 C50.98457371 107.36219386 48.67437949 104.16710213 46.36328125 100.97265625 C45.76902344 100.15087891 45.17476562 99.32910156 44.5625 98.48242188 C43.42102209 96.90397195 42.27911518 95.32583215 41.13671875 93.74804688 C40.36714844 92.68360352 40.36714844 92.68360352 39.58203125 91.59765625 C39.13061768 90.97383057 38.6792041 90.35000488 38.21411133 89.70727539 C37.11300446 88.15890613 36.05391339 86.58087009 35 85 C34.01 84.67 33.02 84.34 32 84 C32 103.14 32 122.28 32 142 C21.44 142 10.88 142 0 142 C0 95.14 0 48.28 0 0 Z M32 26 C32 37.22 32 48.44 32 60 C36.455 60.0825 40.91 60.165 45.5 60.25 C46.88896484 60.28641602 48.27792969 60.32283203 49.70898438 60.36035156 C56.97124117 60.42530539 61.88879401 60.04472117 68 56 C72.94144179 50.67844731 73.34926364 47.09180084 73.28125 39.984375 C72.78154276 34.68192591 70.2492295 32.12735345 66.4375 28.6875 C62.36561484 25.86850258 59.20232788 25.88121254 54.36328125 25.90234375 C53.19321533 25.90484131 52.02314941 25.90733887 50.81762695 25.90991211 C49.33093506 25.91901611 47.84424316 25.92812012 46.3125 25.9375 C41.589375 25.958125 36.86625 25.97875 32 26 Z " fill="#0E6FE0" transform="translate(763,85)"/>
<path d="M0 0 C10.56 0 21.12 0 32 0 C32 18.15 32 36.3 32 55 C50.15 55 68.3 55 87 55 C87 36.85 87 18.7 87 0 C97.89 0 108.78 0 120 0 C120 46.86 120 93.72 120 142 C109.11 142 98.22 142 87 142 C87 122.53 87 103.06 87 83 C68.85 83 50.7 83 32 83 C32 102.47 32 121.94 32 142 C21.44 142 10.88 142 0 142 C0 95.14 0 48.28 0 0 Z " fill="#0E6FE0" transform="translate(473,85)"/>
<path d="M0 0 C33.33 0 66.66 0 101 0 C101 9.24 101 18.48 101 28 C78.23 28 55.46 28 32 28 C32 37.24 32 46.48 32 56 C52.79 56 73.58 56 95 56 C95 64.91 95 73.82 95 83 C74.21 83 53.42 83 32 83 C32 93.23 32 103.46 32 114 C55.1 114 78.2 114 102 114 C102 123.24 102 132.48 102 142 C68.34 142 34.68 142 0 142 C0 95.14 0 48.28 0 0 Z " fill="#0E6FE1" transform="translate(891,85)"/>
<path d="M0 0 C9.9 0 19.8 0 30 0 C31.79630859 4.64449219 31.79630859 4.64449219 33.62890625 9.3828125 C44.93249696 38.59352312 44.93249696 38.59352312 56.375 67.75 C56.80440887 68.83701202 56.80440887 68.83701202 57.24249268 69.94598389 C60.85723791 79.09289158 64.48962329 88.23274127 68.12792969 97.37030029 C70.08194552 102.27911591 72.03349268 107.18891148 73.98492432 112.09875488 C75.41943504 115.70459128 76.85786285 119.30884906 78.29638672 122.91308594 C79.17564707 125.12427288 80.05472495 127.3355324 80.93359375 129.546875 C81.34529312 130.57514404 81.75699249 131.60341309 82.1811676 132.6628418 C82.5537822 133.60264893 82.92639679 134.54245605 83.31030273 135.51074219 C83.63812241 136.33322449 83.96594208 137.15570679 84.30369568 138.00311279 C85 140 85 140 85 142 C73.78 142 62.56 142 51 142 C45.29723502 128.31336406 45.29723502 128.31336406 43.6875 123.875 C43.36136719 122.98554688 43.03523438 122.09609375 42.69921875 121.1796875 C42 119 42 119 42 117 C14.775 117.495 14.775 117.495 -13 118 C-15.97 125.92 -18.94 133.84 -22 142 C-33.22 142 -44.44 142 -56 142 C-48.78304017 123.12694381 -41.40410782 104.32641798 -33.92993546 85.554245 C-32.45370465 81.84553263 -30.97918189 78.1361414 -29.50463867 74.42675781 C-29.06091148 73.31052662 -29.06091148 73.31052662 -28.6082201 72.1717453 C-28.01077689 70.66882054 -27.41333966 69.16589339 -26.81590843 67.66296387 C-25.92512125 65.42222831 -25.03415167 63.18156535 -24.1431427 60.94091797 C-18.68578447 47.21607294 -13.24594004 33.48433236 -7.8125 19.75 C-7.20125778 18.20514923 -7.20125778 18.20514923 -6.57766724 16.62908936 C-4.38458925 11.08626586 -2.1921734 5.54318146 0 0 Z M14 42 C11.57440093 48.5128046 9.15383686 55.02746392 6.73681641 61.54345703 C5.91344033 63.76133898 5.08889915 65.97878875 4.26318359 68.19580078 C3.07866007 71.37680813 1.89829256 74.55933037 0.71875 77.7421875 C0.16096863 79.23599442 0.16096863 79.23599442 -0.40808105 80.75997925 C-0.74843384 81.68078278 -1.08878662 82.6015863 -1.43945312 83.55029297 C-1.7414563 84.3630368 -2.04345947 85.17578064 -2.35461426 86.01315308 C-3.10297969 87.96885413 -3.10297969 87.96885413 -3 90 C8.55 90 20.1 90 32 90 C26.7278758 73.83979323 20.98376044 57.90901754 15 42 C14.67 42 14.34 42 14 42 Z " fill="#0B0B0B" transform="translate(1654,85)"/>
<path d="M0 0 C1.20970459 0.00523682 2.41940918 0.01047363 3.66577148 0.01586914 C4.97094727 0.0190918 6.27612305 0.02231445 7.62084961 0.02563477 C9.00952213 0.03399138 10.39819401 0.04245634 11.78686523 0.05102539 C13.17944179 0.05603873 14.57202005 0.06060193 15.96459961 0.06469727 C19.38456394 0.07653105 22.80444367 0.09301659 26.22436523 0.11352539 C34.3516732 19.76764513 42.11264625 39.55520813 49.82162476 59.37615967 C54.00248679 70.12143428 58.20822313 80.85695146 62.41702271 91.59130859 C63.68604556 94.8282811 64.95412409 98.06562241 66.22216797 101.30297852 C67.02490486 103.35053548 67.8277191 105.39806212 68.63061523 107.44555664 C69.01552628 108.4283963 69.40043732 109.41123596 69.79701233 110.42385864 C71.70325118 115.28123051 73.62973138 120.12901488 75.59545898 124.96264648 C75.97005249 125.88647629 76.344646 126.81030609 76.73059082 127.76213074 C77.43700394 129.50010406 78.14777913 131.23631307 78.86364746 132.97041321 C79.17539917 133.73782333 79.48715088 134.50523346 79.80834961 135.29589844 C80.08304077 135.96413132 80.35773193 136.6323642 80.64074707 137.32084656 C81.22436523 139.11352539 81.22436523 139.11352539 81.22436523 142.11352539 C70.00436523 142.11352539 58.78436523 142.11352539 47.22436523 142.11352539 C44.25436523 134.19352539 41.28436523 126.27352539 38.22436523 118.11352539 C20.07436523 117.78352539 1.92436523 117.45352539 -16.77563477 117.11352539 C-17.10563477 118.76352539 -17.43563477 120.41352539 -17.77563477 122.11352539 C-18.27450129 123.66080137 -18.80668218 125.19768022 -19.36938477 126.72290039 C-19.6774707 127.55950195 -19.98555664 128.39610352 -20.30297852 129.25805664 C-20.62395508 130.11786133 -20.94493164 130.97766602 -21.27563477 131.86352539 C-21.75709961 133.17643555 -21.75709961 133.17643555 -22.24829102 134.51586914 C-24.64436167 140.9822523 -24.64436167 140.9822523 -25.77563477 142.11352539 C-28.22393903 142.20196332 -30.64384075 142.22881291 -33.09204102 142.21118164 C-33.82309555 142.20976669 -34.55415009 142.20835175 -35.30735779 142.20689392 C-37.65099109 142.20127947 -39.99453016 142.18872461 -42.33813477 142.17602539 C-43.92341985 142.17101225 -45.50870642 142.16644902 -47.09399414 142.16235352 C-50.98791087 142.15130536 -54.88175682 142.13403111 -58.77563477 142.11352539 C-56.69435127 134.42396614 -53.87990074 127.08906539 -50.8821106 119.71981812 C-49.33018535 115.90323773 -47.7945713 112.08007671 -46.25610352 108.25805664 C-45.91236191 107.40520584 -45.5686203 106.55235504 -45.21446228 105.67366028 C-40.45930404 93.86490079 -35.77712488 82.02705528 -31.08760834 70.1921196 C-30.09006478 67.67508776 -29.09188939 65.1583067 -28.09371185 62.64152622 C-23.3806804 50.75770094 -18.6748359 38.87113797 -13.99829102 26.97290039 C-13.64100418 26.06457962 -13.28371735 25.15625885 -12.91560364 24.22041321 C-11.28303359 20.06977858 -9.6528763 15.91823544 -8.02783203 11.76464844 C-7.46730779 10.33793114 -6.9066864 8.911252 -6.34594727 7.48461914 C-5.63075928 5.65821899 -5.63075928 5.65821899 -4.90112305 3.79492188 C-3.36603088 0.137673 -3.36603088 0.137673 0 0 Z M10.22436523 43.11352539 C7.93897067 49.32240643 5.6610792 55.53400194 3.38842773 61.74755859 C2.61412025 63.86180129 1.83808584 65.97541234 1.06030273 68.08837891 C-0.05620729 71.12246642 -1.16652364 74.15875792 -2.27563477 77.19555664 C-2.80060547 78.61600029 -2.80060547 78.61600029 -3.33618164 80.06513977 C-3.81667969 81.38616951 -3.81667969 81.38616951 -4.30688477 82.73388672 C-4.59112305 83.50888016 -4.87536133 84.2838736 -5.16821289 85.08235168 C-5.91889101 87.23922135 -5.91889101 87.23922135 -5.77563477 90.11352539 C5.44436523 90.11352539 16.66436523 90.11352539 28.22436523 90.11352539 C26.365036 83.29598485 24.51332912 76.7562197 22.08764648 70.16430664 C21.80334274 69.38081345 21.519039 68.59732025 21.22612 67.79008484 C20.333798 65.33388404 19.43546337 62.87993604 18.53686523 60.42602539 C17.9238321 58.74192722 17.31119873 57.05768346 16.69897461 55.37329102 C15.21203989 51.28501021 13.71971577 47.1987351 12.22436523 43.11352539 C11.56436523 43.11352539 10.90436523 43.11352539 10.22436523 43.11352539 Z " fill="#0B0B0B" transform="translate(1214.775634765625,84.886474609375)"/>
<path d="M0 0 C9.9 0 19.8 0 30 0 C31.32837891 3.47466797 31.32837891 3.47466797 32.68359375 7.01953125 C39.38654418 24.52808215 46.15432709 42.00883308 53.0625 59.4375 C53.75252338 61.17887346 54.44254616 62.92024716 55.13256836 64.66162109 C55.65975212 65.99197891 55.65975212 65.99197891 56.19758606 67.34921265 C56.55648422 68.25490997 56.91538239 69.1606073 57.28515625 70.09375 C57.65005661 71.01451324 58.01495697 71.93527649 58.39091492 72.88394165 C62.85434109 84.15040251 67.30263643 95.42282068 71.74081135 106.69925022 C72.99066456 109.87481202 74.24138847 113.05002366 75.49441528 116.22433472 C76.89445709 119.77233533 78.29135952 123.32155649 79.6875 126.87109375 C80.32062355 128.47271362 80.32062355 128.47271362 80.96653748 130.10668945 C81.3526973 131.09040527 81.73885712 132.07412109 82.13671875 133.08764648 C82.47405029 133.94390121 82.81138184 134.80015594 83.15893555 135.68235779 C84 138 84 138 85 142 C73.78 142 62.56 142 51 142 C48.5463445 136.47927513 46.25612174 131.21555294 44.25 125.5625 C43.82203125 124.36753906 43.3940625 123.17257813 42.953125 121.94140625 C42 119 42 119 42 117 C14.775 117.495 14.775 117.495 -13 118 C-15.97 125.92 -18.94 133.84 -22 142 C-33.22 142 -44.44 142 -56 142 C-48.28259229 121.30331568 -40.15789627 100.78992473 -31.93261719 80.29052734 C-30.96804739 77.88641392 -30.00352983 75.48227953 -29.0390625 73.078125 C-28.31003723 71.26092453 -28.31003723 71.26092453 -27.56628418 69.40701294 C-21.71248335 54.8080903 -15.91842012 40.18546369 -10.125 25.5625 C-9.60771422 24.25704658 -9.09042098 22.95159612 -8.57312012 21.64614868 C-5.71423991 14.43122987 -2.85692236 7.21569472 0 0 Z M14 42 C11.57440093 48.5128046 9.15383686 55.02746392 6.73681641 61.54345703 C5.91344033 63.76133898 5.08889915 65.97878875 4.26318359 68.19580078 C3.07866007 71.37680813 1.89829256 74.55933037 0.71875 77.7421875 C0.16096863 79.23599442 0.16096863 79.23599442 -0.40808105 80.75997925 C-0.74843384 81.68078278 -1.08878662 82.6015863 -1.43945312 83.55029297 C-1.7414563 84.3630368 -2.04345947 85.17578064 -2.35461426 86.01315308 C-3.10297969 87.96885413 -3.10297969 87.96885413 -3 90 C8.55 90 20.1 90 32 90 C26.7278758 73.83979323 20.98376044 57.90901754 15 42 C14.67 42 14.34 42 14 42 Z " fill="#0E6FE0" transform="translate(664,85)"/>
<path d="M0 0 C2.08102001 1.836386 4.07348928 3.69524505 5.9921875 5.69921875 C3.69128572 10.9413052 -0.40273457 14.50188941 -4.3828125 18.51171875 C-5.15109375 19.31287109 -5.919375 20.11402344 -6.7109375 20.93945312 C-7.45601563 21.69162109 -8.20109375 22.44378906 -8.96875 23.21875 C-9.98654541 24.25672729 -9.98654541 24.25672729 -11.02490234 25.31567383 C-13.0078125 26.69921875 -13.0078125 26.69921875 -15.14624023 26.49609375 C-17.32234505 25.56457819 -18.87260793 24.39608626 -20.6953125 22.88671875 C-29.74831505 16.00577358 -37.57400776 14.47776604 -49.0078125 15.69921875 C-52.22037693 16.4929664 -54.59485954 17.40758745 -57.0078125 19.69921875 C-59.10752914 23.82088474 -59.21537352 25.83932308 -58.1328125 30.32421875 C-53.17417207 38.19970649 -43.5630315 40.59783973 -35.1953125 43.63671875 C-20.16765719 49.09894477 -5.45167735 55.32519681 3.0546875 69.6796875 C7.68763143 79.65982088 8.64809779 93.25136503 4.9921875 103.69921875 C0.58627786 114.57367726 -5.38728933 122.45271674 -16.0078125 127.69921875 C-34.53528147 135.46619264 -57.50846681 136.4756635 -76.29296875 128.9453125 C-86.33007223 124.33835421 -93.60851212 118.83517514 -101.0078125 110.69921875 C-98.70691072 105.4571323 -94.61289043 101.89654809 -90.6328125 97.88671875 C-89.86453125 97.08556641 -89.09625 96.28441406 -88.3046875 95.45898438 C-87.55960937 94.70681641 -86.81453125 93.95464844 -86.046875 93.1796875 C-85.02907959 92.14171021 -85.02907959 92.14171021 -83.99072266 91.08276367 C-82.0078125 89.69921875 -82.0078125 89.69921875 -79.88525391 89.875 C-77.34684096 90.98939299 -75.74489841 92.58538906 -73.7578125 94.51171875 C-64.75891662 102.74475115 -55.26574947 105.16303146 -43.203125 104.953125 C-37.60020332 104.50790506 -33.06705517 103.19216968 -28.5078125 99.88671875 C-26.56543222 97.05408085 -26.14503185 95.1297025 -26.0078125 91.69921875 C-27.05235389 86.58096595 -29.18306755 84.15557467 -33.0078125 80.69921875 C-40.38540914 76.37710265 -48.70561499 73.66700126 -56.6953125 70.69921875 C-63.92969416 68.00251796 -70.71430678 65.26431933 -77.0078125 60.69921875 C-78.6165625 59.55453125 -78.6165625 59.55453125 -80.2578125 58.38671875 C-88.59987395 50.2342496 -91.7938484 41.11005345 -92.2578125 29.57421875 C-92.08488876 19.44088774 -89.50486785 10.51407306 -83.0078125 2.69921875 C-82.481875 2.06242187 -81.9559375 1.425625 -81.4140625 0.76953125 C-61.49124623 -21.12677154 -21.65522958 -16.56484445 0 0 Z " fill="#0E6FE0" transform="translate(447.0078125,96.30078125)"/>
<path d="M0 0 C81.33159269 0 81.33159269 0 95.41015625 13.18359375 C105.99082538 25.27207323 107.93047044 37.36290517 107.1640625 52.86669922 C106.3482057 63.4752658 100.88261919 72.55479843 93.3125 79.8125 C83.45748277 88.18778491 71.98299124 91.37352943 59.24609375 91.1953125 C58.54746216 91.19329834 57.84883057 91.19128418 57.12902832 91.18920898 C54.56511698 91.17889031 52.00130058 91.1509701 49.4375 91.125 C40.8059375 91.063125 40.8059375 91.063125 32 91 C32 107.83 32 124.66 32 142 C21.44 142 10.88 142 0 142 C0 95.14 0 48.28 0 0 Z M32 26 C32 39.2 32 52.4 32 66 C36.104375 66.061875 40.20875 66.12375 44.4375 66.1875 C45.71294678 66.21481201 46.98839355 66.24212402 48.30249023 66.27026367 C56.03832531 66.32635979 63.17379704 66.1213761 69.375 61.0625 C69.91125 60.381875 70.4475 59.70125 71 59 C71.556875 58.319375 72.11375 57.63875 72.6875 56.9375 C76.09134556 51.9127756 75.51649775 45.81428891 75 40 C73.46728311 34.34926061 70.51154415 31.08219493 65.68359375 27.91015625 C61.86073317 25.8435054 58.62787832 25.88372106 54.36328125 25.90234375 C53.19321533 25.90484131 52.02314941 25.90733887 50.81762695 25.90991211 C49.33093506 25.91901611 47.84424316 25.92812012 46.3125 25.9375 C41.589375 25.958125 36.86625 25.97875 32 26 Z " fill="#0B0B0B" transform="translate(1052,85)"/>
<path d="M0 0 C6.49773337 4.45134089 11.37410619 9.50394511 14 17 C14.47494667 20.0069872 14.48080775 22.90013815 14.375 25.9375 C14.35703369 26.73309326 14.33906738 27.52868652 14.32055664 28.34838867 C13.85698445 43.15382049 8.15132959 54.7175651 -2.19921875 65.4921875 C-12.9733329 75.13930226 -25.27165554 80.83032755 -39.76953125 80.30859375 C-47.51212119 79.56897512 -51.91555093 76.93174568 -57.2421875 71.25 C-59.95335916 67.77970028 -61.56404718 64.13725019 -63 60 C-63.35707031 59.06671875 -63.71414062 58.1334375 -64.08203125 57.171875 C-67.57352259 45.10765811 -64.78146715 31.69460899 -58.9375 20.875 C-52.65869515 10.81838174 -44.80767328 3.82997788 -34 -1 C-33.24976562 -1.33902344 -32.49953125 -1.67804688 -31.7265625 -2.02734375 C-21.34677734 -6.09307187 -9.94795979 -4.64404131 0 0 Z " fill="#030303" transform="translate(117,110)"/>
<path d="M0 0 C0.64453125 0.47695312 1.2890625 0.95390625 1.953125 1.4453125 C10.31071806 8.63585428 16.15663138 22.19481765 17.19897461 33.07739258 C17.30169872 35.2025746 17.32943885 37.30998101 17.3125 39.4375 C17.30686035 40.18322266 17.3012207 40.92894531 17.29541016 41.69726562 C17.08714033 51.14158031 14.28198984 58.79935358 8 66 C-0.34757217 72.80648192 -7.35170943 73.78344936 -18 73 C-31.33785292 70.18440982 -43.58572486 62.43209465 -51.5234375 51.33203125 C-54.42484148 46.74965512 -56.77088306 41.93825022 -59 37 C-59.34417969 36.24847656 -59.68835938 35.49695313 -60.04296875 34.72265625 C-63.45960711 26.10887785 -63.37921502 15.58928962 -59.9921875 6.9765625 C-58.31520254 3.63579719 -56.39141729 0.88196442 -54 -2 C-53.34 -2 -52.68 -2 -52 -2 C-52 -2.66 -52 -3.32 -52 -4 C-50.27559635 -4.98753064 -48.54524974 -5.96468806 -46.8125 -6.9375 C-45.36810547 -7.75541016 -45.36810547 -7.75541016 -43.89453125 -8.58984375 C-29.4796406 -15.61248279 -11.87505058 -9.04211367 0 0 Z " fill="#030303" transform="translate(231,117)"/>
<path d="M0 0 C4.3151144 0.50617178 8.25820366 1.64434794 12.375 3 C17.3753048 4.55941709 21.77907587 5.66851275 27 6 C28.24716797 6.09474609 28.24716797 6.09474609 29.51953125 6.19140625 C39.583239 6.61818455 50.49291467 4.63128041 59.859375 0.84375 C62.58233282 -0.22953264 64.2324917 0.20928334 67 1 C66.60866779 9.45277574 64.70104733 15.71850849 58.5 21.6875 C48.29561597 29.85100722 37.61211644 31.29371544 25 30 C15.86028526 28.561232 9.23855764 24.15635375 3.625 16.875 C-0.37876706 11.30551398 -1.33581427 7.82822352 -1 1 C-0.67 0.67 -0.34 0.34 0 0 Z " fill="#040404" transform="translate(117,201)"/>
<path d="M0 0 C1.01191406 -0.02449219 2.02382812 -0.04898438 3.06640625 -0.07421875 C9.37658735 -0.09877198 14.58905307 0.4853762 19.75 4.375 C22.4923056 8.48845839 22.57451637 11.54675096 21.75 16.375 C18.74022973 23.99669963 13.96054789 28.65298385 6.75 32.375 C2.41143617 33.82118794 -1.18701981 34.19454008 -5.53125 32.46875 C-10.63648316 29.81402875 -13.93228823 27.05882838 -17.25 22.375 C-17.848125 21.6325 -18.44625 20.89 -19.0625 20.125 C-20.88643048 15.90116099 -21.05285575 11.89478051 -20.25 7.375 C-14.66039311 -0.07780919 -8.6531769 0.01085719 0 0 Z " fill="#040404" transform="translate(149.25,160.625)"/>
<path d="M0 0 C7.43451017 4.23809889 12.17642837 11.1464726 14.84765625 19.16015625 C15.03515625 22.59765625 15.03515625 22.59765625 14.84765625 25.16015625 C14.21150391 24.58007812 14.21150391 24.58007812 13.5625 23.98828125 C6.28575548 17.52717183 -0.00844466 13.67480103 -9.90625 13.74609375 C-17.39039914 14.70075056 -23.28466851 19.64345764 -28.15234375 25.16015625 C-27.80853792 17.7339504 -26.51816852 11.67111925 -21.25 6.17578125 C-14.88659798 0.44042449 -8.66327064 -3.38040506 0 0 Z " fill="#F3F3F3" transform="translate(102.15234375,124.83984375)"/>
<path d="M0 0 C6.93685347 4.01886539 11.85665034 9.56213851 14.3984375 17.1875 C15.03227685 19.86912804 15.06077755 22.38364311 14.85546875 25.12109375 C14.19546875 24.39921875 13.53546875 23.67734375 12.85546875 22.93359375 C7.28224305 17.34444454 1.08632376 14.00970096 -6.83203125 13.74609375 C-12.22824235 13.75917547 -15.35201504 14.78500549 -19.62109375 18.02734375 C-21.14453125 19.12109375 -21.14453125 19.12109375 -23.14453125 19.12109375 C-23.41265625 19.73984375 -23.68078125 20.35859375 -23.95703125 20.99609375 C-25.14453125 23.12109375 -25.14453125 23.12109375 -28.14453125 25.12109375 C-27.14713037 15.54604532 -24.28289412 8.79891708 -17.14453125 2.12109375 C-11.92979159 -1.50655123 -5.95044626 -2.43870748 0 0 Z " fill="#F3F3F3" transform="translate(211.14453125,124.87890625)"/>
</svg>
